<svg xmlns="http://www.w3.org/2000/svg" viewBox="0 0 200 220" fill="none" stroke="white" stroke-width="6" stroke-linecap="round" stroke-linejoin="round">
  <!-- Forehead and face outline -->
  <path d="M 80 30 C 55 30 40 50 38 75 C 36 95 38 110 42 125 C 46 140 55 155 70 168 C 78 175 82 180 80 188 C 78 195 72 198 68 195 C 60 188 55 192 58 200 C 62 210 75 212 85 205 C 95 198 100 185 100 175 C 100 160 108 148 118 138 C 128 128 135 115 138 100 C 141 85 140 68 132 52 C 124 38 110 30 95 30 Z"/>
  <!-- Left eye -->
  <ellipse cx="70" cy="80" rx="16" ry="10"/>
  <ellipse cx="72" cy="80" rx="6" ry="5"/>
  <!-- Right eye (closed/winking) -->
  <path d="M 115 75 C 118 70 125 68 130 72"/>
  <path d="M 115 75 C 118 80 125 82 130 78"/>
  <line x1="130" y1="72" x2="138" y2="65"/>
  <line x1="132" y1="75" x2="142" y2="70"/>
  <line x1="130" y1="78" x2="140" y2="78"/>
</svg>
